<?xml version="1.0" encoding="utf-8"?>
<!-- Generator: Adobe Illustrator 19.0.0, SVG Export Plug-In . SVG Version: 6.00 Build 0)  -->
<svg version="1.1" id="Layer_1" xmlns="http://www.w3.org/2000/svg" xmlns:xlink="http://www.w3.org/1999/xlink" x="0px" y="0px"
	 viewBox="0 0 480.9 379.7" style="enable-background:new 0 0 480.9 379.7;" xml:space="preserve">
<style type="text/css">
	.st0{fill:#FFFFFF;}
</style>
<path id="XMLID_45_" class="st0" d="M0,0v379.7h480.9V0H0z M294.7,283.1c0,6.1-2.5,11.4-7.6,15.9c-5,4.5-10.8,6.8-17.4,6.8
	s-12.3-2.5-17.2-7.4c-4.9-4.9-7.4-10.6-7.4-17.2v-91.9c0-4.8-1.7-8.8-5.1-12.1c-3.4-3.3-7.6-4.9-12.7-4.9c-4.3,0-8.3,1.5-11.9,4.4
	c-3.7,2.9-5.5,7.1-5.5,12.7v45c0,6.8-2.4,12.6-7.4,17.4c-4.9,4.8-10.8,7.2-17.6,7.2c-6.3,0-12-2.2-17-6.6c-5-4.4-7.6-9.8-7.6-16.1
	v-46.9c-0.3-5-2.1-9.1-5.7-12.3c-3.5-3.1-7.4-4.7-11.7-4.7c-4.8,0-8.9,1.7-12.3,4.9c-3.4,3.3-5.2,7.5-5.5,12.5v93.8
	c-0.5,6.1-3.1,11.3-7.8,15.7c-4.7,4.4-10.3,6.6-16.8,6.6c-3.5,0-6.8-0.6-9.8-1.9c-3-1.3-5.7-3-7.9-5.3c-2.3-2.3-4.1-4.9-5.5-8
	c-1.4-3-2-6.2-1.7-9.5v-93.1c0-8.8,1.8-17.2,5.3-25.2c3.5-7.9,8.3-14.9,14.4-20.8c6-5.9,13.2-10.6,21.4-14.2
	c8.2-3.5,17-5.3,26.3-5.3c7.6,0,14.9,1.2,22.1,3.6c7.2,2.4,13.8,6.1,19.9,11.2c12.1-9.8,26.2-14.8,42.4-14.8
	c8.8,0,17.3,1.7,25.5,5.1c8.2,3.4,15.4,8,21.6,13.8c6.2,5.8,11.1,12.7,14.8,20.8c3.7,8.1,5.5,16.6,5.5,25.7V283.1z M405.8,297.7
	c-4.2,4.7-9.5,7.5-16.1,8.5h-5.3c-8.8,0-17.2-1.8-25-5.5c-7.8-3.7-14.7-8.5-20.6-14.6c-5.9-6-10.6-13.1-14-21.2
	c-3.4-8.1-5.1-16.5-5.1-25.3v-151c0.8-6.3,3.4-11.7,7.9-16.3s10.2-6.9,17-7.2c6.8,0,12.5,2.4,17.2,7.2s7.3,10.7,7.8,17.8v149.4
	c0,5,1.6,9.3,4.9,12.9c3.3,3.5,7.4,5.3,12.5,5.3c6.6,0,12.3,2.3,17.2,6.8c4.9,4.5,7.5,10.2,7.8,17C412,287.6,409.9,293,405.8,297.7z
	"/>
</svg>
